{"title":"Chennai Express 2013 Hindi Movies Super Cam Rip Good Quality Sam","uid":8795063,"size":768421888,"categoryP":"video","categoryS":"movies","magnet":"?xt=urn:btih:dffcf7439860ef2b1b0f4d02a1a915d9838cfe53&amp;dn=Chennai+Express+2013+Hindi+Movies+Super+Cam+Rip+Good+Quality+Sam&amp;tr=udp%3A%2F%2Ftracker.openbittorrent.com%3A80&amp;tr=udp%3A%2F%2Fopen.demonii.com%3A1337&amp;tr=udp%3A%2F%2Ftracker.coppersurfer.tk%3A6969&amp;tr=udp%3A%2F%2Fexodus.desync.com%3A6969","seeders":2,"leechers":1,"uploader":"basicssom","files":2,"time":1376009045,"description":" &lt;a href=&quot;http://users2.jabry.com/myimghost/logo.jpg&quot; rel=&quot;nofollow&quot; target=&quot;_NEW&quot;&gt;http://users2.jabry.com/myimghost/logo.jpg&lt;/a&gt;\n\nChennai Express 2013 Hindi Movies Super Cam Rip Good Quality Sample Included ~ â˜»rDXâ˜»\n\nScreen Shots :\n &lt;a href=&quot;\nhttp://myimghosting.serveftp.com/13/ChennaiExpress.html&quot; rel=&quot;nofollow&quot; target=&quot;_NEW&quot;&gt;\nhttp://myimghosting.serveftp.com/13/ChennaiExpress.html&lt;/a&gt;\n &lt;a href=&quot;\nhttp://myimghost.cwahi.net/ChennaiExpress.html&quot; rel=&quot;nofollow&quot; target=&quot;_NEW&quot;&gt;\nhttp://myimghost.cwahi.net/ChennaiExpress.html&lt;/a&gt;\n &lt;a href=&quot;\nhttp://users2.jabry.com/myimghost/ChennaiExpress/ChennaiExpress.jpg&quot; rel=&quot;nofollow&quot; target=&quot;_NEW&quot;&gt;\nhttp://users2.jabry.com/myimghost/ChennaiExpress/ChennaiExpress.jpg&lt;/a&gt;\n &lt;a href=&quot;\nhttp://users2.jabry.com/myimghost/ChennaiExpress/ChennaiExpress1.jpg&quot; rel=&quot;nofollow&quot; target=&quot;_NEW&quot;&gt;\nhttp://users2.jabry.com/myimghost/ChennaiExpress/ChennaiExpress1.jpg&lt;/a&gt;\n &lt;a href=&quot;\nhttp://users2.jabry.com/myimghost/ChennaiExpress/ChennaiExpress2.jpg&quot; rel=&quot;nofollow&quot; target=&quot;_NEW&quot;&gt;\nhttp://users2.jabry.com/myimghost/ChennaiExpress/ChennaiExpress2.jpg&lt;/a&gt;\n\nFormat                                   : MPEG-PS\nFile size                                : 721 MiB\nDuration                                 : 2h 6mn\nOverall bit rate mode                    : Variable\nOverall bit rate                         : 796 Kbps\n\nVideo\nID                                       : 224 (0xE0)\nFormat                                   : MPEG Video\nFormat version                           : Version 2\nFormat profile                           : Main@Main\nFormat settings, BVOP                    : Yes\nFormat settings, Matrix                  : Default\nFormat settings, GOP                     : M=3, N=13\nDuration                                 : 2h 6mn\nBit rate mode                            : Variable\nBit rate                                 : 652 Kbps\nMaximum bit rate                         : 9 672 Kbps\nWidth                                    : 352 pixels\nHeight                                   : 288 pixels\nDisplay aspect ratio                     : 4:3\nFrame rate                               : 25.000 fps\nStandard                                 : PAL\nColor space                              : YUV\nChroma subsampling                       : 4:2:0\nBit depth                                : 8 bits\nScan type                                : Progressive\nCompression mode                         : Lossy\nBits/(Pixel*Frame)                       : 0.257\nStream size                              : 591 MiB (82%)\n\nAudio\nID                                       : 192 (0xC0)\nFormat                                   : MPEG Audio\nFormat version                           : Version 1\nFormat profile                           : Layer 2\nDuration                                 : 2h 6mn\nBit rate mode                            : Constant\nBit rate                                 : 128 Kbps\nChannel(s)                               : 2 channels\nSampling rate                            : 48.0 KHz\nCompression mode                         : Lossy\nStream size                              : 116 MiB (16%)","torrent":{"xt":"urn:btih:dffcf7439860ef2b1b0f4d02a1a915d9838cfe53","amp;dn":"Chennai+Express+2013+Hindi+Movies+Super+Cam+Rip+Good+Quality+Sam","amp;tr":["udp%3A%2F%2Ftracker.openbittorrent.com%3A80","udp%3A%2F%2Fopen.demonii.com%3A1337","udp%3A%2F%2Ftracker.coppersurfer.tk%3A6969","udp%3A%2F%2Fexodus.desync.com%3A6969"],"infoHash":"dffcf7439860ef2b1b0f4d02a1a915d9838cfe53","infoHashBuffer":{"type":"Buffer","data":[223,252,247,67,152,96,239,43,27,15,77,2,161,169,21,217,131,140,254,83]},"announce":[],"urlList":[]}}